# xmcd
#
# Track frame offsets:
#	183
#	24558
#	48575
#	64030
#	82428
#	108800
#	126735
#	139098
#	154245
#	170458
#	184978
#	207073
#	221855
#	235810
#	253020
#	272688
#	288645
#
# Disc length: 4035
#
# Revision: 2
# Processed by: cddbd v1.5.1PL0 Copyright (c) Steve Scherf et al.
# Submitted via: CDCOPY 4.744
# Normalized: r1:DSETVAR1,TDELIM( - )
#
DISCID=0e0fc111
DTITLE=Various Artist - Dance Classic vol 2
DYEAR=1900
DGENRE=
TTITLE0=Odissey - Going back to my roots
TTITLE1=Delegation - You and I
TTITLE2=Al Hudson and the partner - You can do it
TTITLE3=Billy Ocean - Carribean queen (no more love on the run)
TTITLE4=GQ - Disco nights
TTITLE5=Pointer sisters - Automatic
TTITLE6=Tymes - You little trustmaker
TTITLE7=The four tops - Are you man enough
TTITLE8=Aretha Franklyn - Think (1989)
TTITLE9=Rufus and Chaka Khan - Do you love what you feel
TTITLE10=Ray Parker jr and Raydio - It's time to party now
TTITLE11=Rose Royce - Carwash
TTITLE12=Evelyn "Champagne" King - If you want my lovin'
TTITLE13=The Three Degrees - Givin' up givin' in
TTITLE14=Tom Browne - Funkin for Jamaica (NY)
TTITLE15=Jimmy Castor Bunch - Cave man (Troglodyte)
TTITLE16=Hues Corporation - Rock the boat
EXTD=
EXTT0=
EXTT1=
EXTT2=
EXTT3=
EXTT4=
EXTT5=
EXTT6=
EXTT7=
EXTT8=
EXTT9=
EXTT10=
EXTT11=
EXTT12=
EXTT13=
EXTT14=
EXTT15=
EXTT16=
PLAYORDER=
